<?xml version="1.0" encoding="utf-8"?>
<mxfile host="app.diagrams.net" type="device" version="20.8.10">
  <diagram name="1. Понятие и цели CJM">
    <mxGraphModel dx="1280" dy="720" grid="1" gridSize="10" guides="1" tooltips="1" connect="1" arrows="1" fold="1" page="1" pageScale="1" pageWidth="1920" pageHeight="1080" background="#FFFFFF" math="0" shadow="0">
      <root>
        <mxCell id="0"/>
        <mxCell id="1" parent="0"/>
        <mxCell id="2" value="&lt;b&gt;Customer Journey Map (CJM)&lt;/b&gt;&lt;br&gt;Визуально-аналитический инструмент, фиксирующий полный опыт клиента (онлайн/оффлайн)." style="shape=ellipse;whiteSpace=wrap;html=1;" vertex="1" parent="1">
          <mxGeometry x="60" y="40" width="560" height="80" as="geometry"/>
        </mxCell>
        <mxCell id="3" value="Примеры оффлайн: визит в магазин, мероприятие, звонок в колл-центр" style="rounded=1;whiteSpace=wrap;html=1;" vertex="1" parent="1">
          <mxGeometry x="40" y="150" width="380" height="60" as="geometry"/>
        </mxCell>
        <mxCell id="4" value="Ценность для бизнеса: выявляет неочевидные точки отказа и барьеры восприятия" style="rounded=1;whiteSpace=wrap;html=1;" vertex="1" parent="1">
          <mxGeometry x="430" y="150" width="440" height="60" as="geometry"/>
        </mxCell>
        <mxCell id="5" style="endArrow=block;rounded=1;orthogonalLoop=1;jettySize=auto;html=1;" edge="1" parent="1" source="2" target="3">
          <mxGeometry relative="1" as="geometry"/>
        </mxCell>
        <mxCell id="6" style="endArrow=block;rounded=1;orthogonalLoop=1;jettySize=auto;html=1;" edge="1" parent="1" source="2" target="4">
          <mxGeometry relative="1" as="geometry"/>
        </mxCell>
        <mxCell id="7" value="&lt;b&gt;Основные цели&lt;/b&gt;" style="shape=hexagon;perimeter=hexagonPerimeter;whiteSpace=wrap;html=1;" vertex="1" parent="1">
          <mxGeometry x="60" y="240" width="220" height="50" as="geometry"/>
        </mxCell>
        <mxCell id="8" value="1) Повышение качества опыта" style="rounded=1;whiteSpace=wrap;html=1;" vertex="1" parent="1">
          <mxGeometry x="60" y="320" width="260" height="60" as="geometry"/>
        </mxCell>
        <mxCell id="9" value="2) Оптимизация конверсии/воронки" style="rounded=1;whiteSpace=wrap;html=1;" vertex="1" parent="1">
          <mxGeometry x="330" y="320" width="260" height="60" as="geometry"/>
        </mxCell>
        <mxCell id="10" value="3) Согласованность отделов" style="rounded=1;whiteSpace=wrap;html=1;" vertex="1" parent="1">
          <mxGeometry x="600" y="320" width="260" height="60" as="geometry"/>
        </mxCell>
        <mxCell id="11" value="4) Планирование стратегии" style="rounded=1;whiteSpace=wrap;html=1;" vertex="1" parent="1">
          <mxGeometry x="870" y="320" width="260" height="60" as="geometry"/>
        </mxCell>
        <mxCell id="12" style="endArrow=block;rounded=1;orthogonalLoop=1;jettySize=auto;html=1;" edge="1" parent="1" source="7" target="8">
          <mxGeometry relative="1" as="geometry"/>
        </mxCell>
        <mxCell id="13" style="endArrow=block;rounded=1;orthogonalLoop=1;jettySize=auto;html=1;" edge="1" parent="1" source="7" target="9">
          <mxGeometry relative="1" as="geometry"/>
        </mxCell>
        <mxCell id="14" style="endArrow=block;rounded=1;orthogonalLoop=1;jettySize=auto;html=1;" edge="1" parent="1" source="7" target="10">
          <mxGeometry relative="1" as="geometry"/>
        </mxCell>
        <mxCell id="15" style="endArrow=block;rounded=1;orthogonalLoop=1;jettySize=auto;html=1;" edge="1" parent="1" source="7" target="11">
          <mxGeometry relative="1" as="geometry"/>
        </mxCell>
      </root>
    </mxGraphModel>
  </diagram>
  <diagram name="2. Компоненты и структура CJM">
    <mxGraphModel dx="1280" dy="720" grid="1" gridSize="10" guides="1" tooltips="1" connect="1" arrows="1" fold="1" page="1" pageScale="1" pageWidth="1920" pageHeight="1080" background="#FFFFFF" math="0" shadow="0">
      <root>
        <mxCell id="0"/>
        <mxCell id="1" parent="0"/>
        <mxCell id="2" value="&lt;b&gt;Компоненты CJM&lt;/b&gt;" style="rounded=1;whiteSpace=wrap;html=1;fillColor=#dae8fc;strokeColor=#6c8ebf;" vertex="1" parent="1">
          <mxGeometry x="60" y="30" width="260" height="50" as="geometry"/>
        </mxCell>
        <mxCell id="3" value="&lt;b&gt;Этапы пути&lt;/b&gt;&lt;br&gt;Осведомление → Интерес → Рассмотрение → Покупка → Лояльность" style="swimlane;whiteSpace=wrap;html=1;rounded=1;" vertex="1" parent="1">
          <mxGeometry x="40" y="110" width="520" height="70" as="geometry"/>
        </mxCell>
        <mxCell id="4" style="endArrow=block;rounded=1;orthogonalLoop=1;jettySize=auto;html=1;" edge="1" parent="1" source="2" target="3">
          <mxGeometry relative="1" as="geometry"/>
        </mxCell>
        <mxCell id="5" value="&lt;b&gt;Действия пользователя&lt;/b&gt;&lt;br&gt;Поиск, регистрация, пробная покупка" style="swimlane;whiteSpace=wrap;html=1;rounded=1;" vertex="1" parent="1">
          <mxGeometry x="40" y="190" width="520" height="70" as="geometry"/>
        </mxCell>
        <mxCell id="6" style="endArrow=block;rounded=1;orthogonalLoop=1;jettySize=auto;html=1;" edge="1" parent="1" source="2" target="5">
          <mxGeometry relative="1" as="geometry"/>
        </mxCell>
        <mxCell id="7" value="&lt;b&gt;Каналы&lt;/b&gt;&lt;br&gt;Сайт, соцсети, email, оффлайн" style="swimlane;whiteSpace=wrap;html=1;rounded=1;" vertex="1" parent="1">
          <mxGeometry x="40" y="270" width="520" height="70" as="geometry"/>
        </mxCell>
        <mxCell id="8" style="endArrow=block;rounded=1;orthogonalLoop=1;jettySize=auto;html=1;" edge="1" parent="1" source="2" target="7">
          <mxGeometry relative="1" as="geometry"/>
        </mxCell>
        <mxCell id="9" value="&lt;b&gt;Эмоции/мотивации&lt;/b&gt;&lt;br&gt;Пики и спады, причины" style="swimlane;whiteSpace=wrap;html=1;rounded=1;" vertex="1" parent="1">
          <mxGeometry x="40" y="350" width="520" height="70" as="geometry"/>
        </mxCell>
        <mxCell id="10" style="endArrow=block;rounded=1;orthogonalLoop=1;jettySize=auto;html=1;" edge="1" parent="1" source="2" target="9">
          <mxGeometry relative="1" as="geometry"/>
        </mxCell>
        <mxCell id="11" value="&lt;b&gt;Болевые точки&lt;/b&gt;&lt;br&gt;Что мешает достигать цели" style="swimlane;whiteSpace=wrap;html=1;rounded=1;" vertex="1" parent="1">
          <mxGeometry x="40" y="430" width="520" height="70" as="geometry"/>
        </mxCell>
        <mxCell id="12" style="endArrow=block;rounded=1;orthogonalLoop=1;jettySize=auto;html=1;" edge="1" parent="1" source="2" target="11">
          <mxGeometry relative="1" as="geometry"/>
        </mxCell>
        <mxCell id="13" value="&lt;b&gt;Ожидания&lt;/b&gt;&lt;br&gt;Что клиент хочет на каждом этапе" style="swimlane;whiteSpace=wrap;html=1;rounded=1;" vertex="1" parent="1">
          <mxGeometry x="40" y="510" width="520" height="70" as="geometry"/>
        </mxCell>
        <mxCell id="14" style="endArrow=block;rounded=1;orthogonalLoop=1;jettySize=auto;html=1;" edge="1" parent="1" source="2" target="13">
          <mxGeometry relative="1" as="geometry"/>
        </mxCell>
        <mxCell id="15" value="&lt;b&gt;Возможности улучшений&lt;/b&gt;&lt;br&gt;Что меняем, чтобы превзойти ожидания" style="swimlane;whiteSpace=wrap;html=1;rounded=1;" vertex="1" parent="1">
          <mxGeometry x="40" y="590" width="520" height="70" as="geometry"/>
        </mxCell>
        <mxCell id="16" style="endArrow=block;rounded=1;orthogonalLoop=1;jettySize=auto;html=1;" edge="1" parent="1" source="2" target="15">
          <mxGeometry relative="1" as="geometry"/>
        </mxCell>
        <mxCell id="17" value="&lt;b&gt;Метрики успеха&lt;/b&gt;&lt;br&gt;Конверсия, NPS, время на этапе, обращения" style="swimlane;whiteSpace=wrap;html=1;rounded=1;" vertex="1" parent="1">
          <mxGeometry x="40" y="670" width="520" height="70" as="geometry"/>
        </mxCell>
        <mxCell id="18" style="endArrow=block;rounded=1;orthogonalLoop=1;jettySize=auto;html=1;" edge="1" parent="1" source="2" target="17">
          <mxGeometry relative="1" as="geometry"/>
        </mxCell>
      </root>
    </mxGraphModel>
  </diagram>
  <diagram name="3. Пошаговое создание CJM">
    <mxGraphModel dx="1280" dy="720" grid="1" gridSize="10" guides="1" tooltips="1" connect="1" arrows="1" fold="1" page="1" pageScale="1" pageWidth="1920" pageHeight="1080" background="#FFFFFF" math="0" shadow="0">
      <root>
        <mxCell id="0"/>
        <mxCell id="1" parent="0"/>
        <mxCell id="2" value="&lt;b&gt;1. Определить цель&lt;/b&gt;&lt;br&gt;Снижение отказов, ускорение обработки и т.п." style="rounded=1;whiteSpace=wrap;html=1;" vertex="1" parent="1">
          <mxGeometry x="60" y="60" width="420" height="70" as="geometry"/>
        </mxCell>
        <mxCell id="3" value="&lt;b&gt;2. Целевая аудитория&lt;/b&gt;&lt;br&gt;Создать персоны: цели, страхи, привычки" style="rounded=1;whiteSpace=wrap;html=1;" vertex="1" parent="1">
          <mxGeometry x="60" y="150" width="420" height="70" as="geometry"/>
        </mxCell>
        <mxCell id="4" style="endArrow=block;rounded=1;orthogonalLoop=1;jettySize=auto;html=1;" edge="1" parent="1" source="2" target="3">
          <mxGeometry relative="1" as="geometry"/>
        </mxCell>
        <mxCell id="5" value="&lt;b&gt;3. Сбор данных&lt;/b&gt;&lt;br&gt;Интервью, опросы, веб-аналитика, CRM, звонки" style="shape=process;rounded=1;whiteSpace=wrap;html=1;fillColor=#d5e8d4;strokeColor=#82b366;" vertex="1" parent="1">
          <mxGeometry x="60" y="240" width="420" height="70" as="geometry"/>
        </mxCell>
        <mxCell id="6" style="endArrow=block;rounded=1;orthogonalLoop=1;jettySize=auto;html=1;" edge="1" parent="1" source="3" target="5">
          <mxGeometry relative="1" as="geometry"/>
        </mxCell>
        <mxCell id="7" value="&lt;b&gt;4. Этапы пути&lt;/b&gt;&lt;br&gt;Осведомление → Интерес → Рассмотрение → Покупка → Лояльность" style="rounded=1;whiteSpace=wrap;html=1;" vertex="1" parent="1">
          <mxGeometry x="60" y="330" width="420" height="70" as="geometry"/>
        </mxCell>
        <mxCell id="8" style="endArrow=block;rounded=1;orthogonalLoop=1;jettySize=auto;html=1;" edge="1" parent="1" source="5" target="7">
          <mxGeometry relative="1" as="geometry"/>
        </mxCell>
        <mxCell id="9" value="&lt;b&gt;5. Точки контакта и эмоции&lt;/b&gt;&lt;br&gt;Онлайн/оффлайн каналы, реакции" style="rounded=1;whiteSpace=wrap;html=1;" vertex="1" parent="1">
          <mxGeometry x="60" y="420" width="420" height="70" as="geometry"/>
        </mxCell>
        <mxCell id="10" style="endArrow=block;rounded=1;orthogonalLoop=1;jettySize=auto;html=1;" edge="1" parent="1" source="7" target="9">
          <mxGeometry relative="1" as="geometry"/>
        </mxCell>
        <mxCell id="11" value="&lt;b&gt;6. Визуализация&lt;/b&gt;&lt;br&gt;Miro, UXPressia, Lucidchart, Figma" style="shape=document;whiteSpace=wrap;html=1;rounded=1;fillColor=#ffe6cc;strokeColor=#d79b00;" vertex="1" parent="1">
          <mxGeometry x="60" y="510" width="420" height="70" as="geometry"/>
        </mxCell>
        <mxCell id="12" style="endArrow=block;rounded=1;orthogonalLoop=1;jettySize=auto;html=1;" edge="1" parent="1" source="9" target="11">
          <mxGeometry relative="1" as="geometry"/>
        </mxCell>
        <mxCell id="13" value="&lt;b&gt;7. Анализ и приоритизация&lt;/b&gt;&lt;br&gt;Фокус на наибольшем влиянии" style="shape=process;rounded=1;whiteSpace=wrap;html=1;fillColor=#d5e8d4;strokeColor=#82b366;" vertex="1" parent="1">
          <mxGeometry x="60" y="600" width="420" height="70" as="geometry"/>
        </mxCell>
        <mxCell id="14" style="endArrow=block;rounded=1;orthogonalLoop=1;jettySize=auto;html=1;" edge="1" parent="1" source="11" target="13">
          <mxGeometry relative="1" as="geometry"/>
        </mxCell>
        <mxCell id="15" value="&lt;b&gt;8. Постоянное обновление&lt;/b&gt;&lt;br&gt;Связка с аналитикой, near real‑time" style="rounded=1;whiteSpace=wrap;html=1;" vertex="1" parent="1">
          <mxGeometry x="60" y="690" width="420" height="70" as="geometry"/>
        </mxCell>
        <mxCell id="16" style="endArrow=block;rounded=1;orthogonalLoop=1;jettySize=auto;html=1;" edge="1" parent="1" source="13" target="15">
          <mxGeometry relative="1" as="geometry"/>
        </mxCell>
      </root>
    </mxGraphModel>
  </diagram>
  <diagram name="4. Типы карт CJM">
    <mxGraphModel dx="1280" dy="720" grid="1" gridSize="10" guides="1" tooltips="1" connect="1" arrows="1" fold="1" page="1" pageScale="1" pageWidth="1920" pageHeight="1080" background="#FFFFFF" math="0" shadow="0">
      <root>
        <mxCell id="0"/>
        <mxCell id="1" parent="0"/>
        <mxCell id="2" value="&lt;b&gt;Типы CJM&lt;/b&gt;" style="shape=ellipse;whiteSpace=wrap;html=1;" vertex="1" parent="1">
          <mxGeometry x="480" y="60" width="220" height="60" as="geometry"/>
        </mxCell>
        <mxCell id="3" value="&lt;b&gt;As‑Is&lt;/b&gt;&lt;br&gt;Текущий опыт, диагностика слабых мест" style="rounded=1;whiteSpace=wrap;html=1;" vertex="1" parent="1">
          <mxGeometry x="160" y="200" width="260" height="80" as="geometry"/>
        </mxCell>
        <mxCell id="4" style="endArrow=block;rounded=1;orthogonalLoop=1;jettySize=auto;html=1;" edge="1" parent="1" source="2" target="3">
          <mxGeometry relative="1" as="geometry"/>
        </mxCell>
        <mxCell id="5" value="&lt;b&gt;To‑Be&lt;/b&gt;&lt;br&gt;Целевая модель после изменений" style="rounded=1;whiteSpace=wrap;html=1;" vertex="1" parent="1">
          <mxGeometry x="480" y="200" width="260" height="80" as="geometry"/>
        </mxCell>
        <mxCell id="6" style="endArrow=block;rounded=1;orthogonalLoop=1;jettySize=auto;html=1;" edge="1" parent="1" source="2" target="5">
          <mxGeometry relative="1" as="geometry"/>
        </mxCell>
        <mxCell id="7" value="&lt;b&gt;Персонажная&lt;/b&gt;&lt;br&gt;Для конкретного сегмента/персоны" style="rounded=1;whiteSpace=wrap;html=1;" vertex="1" parent="1">
          <mxGeometry x="800" y="200" width="260" height="80" as="geometry"/>
        </mxCell>
        <mxCell id="8" style="endArrow=block;rounded=1;orthogonalLoop=1;jettySize=auto;html=1;" edge="1" parent="1" source="2" target="7">
          <mxGeometry relative="1" as="geometry"/>
        </mxCell>
        <mxCell id="9" value="&lt;b&gt;Сервисная&lt;/b&gt;&lt;br&gt;Фокус на канале/услуге" style="rounded=1;whiteSpace=wrap;html=1;" vertex="1" parent="1">
          <mxGeometry x="320" y="340" width="260" height="80" as="geometry"/>
        </mxCell>
        <mxCell id="10" style="endArrow=block;rounded=1;orthogonalLoop=1;jettySize=auto;html=1;" edge="1" parent="1" source="2" target="9">
          <mxGeometry relative="1" as="geometry"/>
        </mxCell>
        <mxCell id="11" value="&lt;b&gt;Дневниковая&lt;/b&gt;&lt;br&gt;По пользовательским записям во времени" style="rounded=1;whiteSpace=wrap;html=1;" vertex="1" parent="1">
          <mxGeometry x="640" y="340" width="260" height="80" as="geometry"/>
        </mxCell>
        <mxCell id="12" style="endArrow=block;rounded=1;orthogonalLoop=1;jettySize=auto;html=1;" edge="1" parent="1" source="2" target="11">
          <mxGeometry relative="1" as="geometry"/>
        </mxCell>
      </root>
    </mxGraphModel>
  </diagram>
  <diagram name="5. Примеры противоречий">
    <mxGraphModel dx="1280" dy="720" grid="1" gridSize="10" guides="1" tooltips="1" connect="1" arrows="1" fold="1" page="1" pageScale="1" pageWidth="1920" pageHeight="1080" background="#FFFFFF" math="0" shadow="0">
      <root>
        <mxCell id="0"/>
        <mxCell id="1" parent="0"/>
        <mxCell id="2" value="&lt;b&gt;Противоречия, выявленные CJM&lt;/b&gt;" style="rounded=1;whiteSpace=wrap;html=1;fillColor=#f8cecc;strokeColor=#b85450;" vertex="1" parent="1">
          <mxGeometry x="60" y="40" width="420" height="60" as="geometry"/>
        </mxCell>
        <mxCell id="3" value="Покупка: обязательна регистрация" style="rounded=1;whiteSpace=wrap;html=1;" vertex="1" parent="1">
          <mxGeometry x="60" y="140" width="280" height="60" as="geometry"/>
        </mxCell>
        <mxCell id="4" value="Покупка: гостевой чек‑аут без регистрации" style="rounded=1;whiteSpace=wrap;html=1;" vertex="1" parent="1">
          <mxGeometry x="360" y="140" width="320" height="60" as="geometry"/>
        </mxCell>
        <mxCell id="5" value="Решение: гостевой чек‑аут + опция регистрации после оплаты" style="rounded=1;whiteSpace=wrap;html=1;fillColor=#d5e8d4;strokeColor=#82b366;" vertex="1" parent="1">
          <mxGeometry x="720" y="140" width="420" height="80" as="geometry"/>
        </mxCell>
        <mxCell id="6" style="endArrow=block;rounded=1;orthogonalLoop=1;jettySize=auto;html=1;" edge="1" parent="1" source="2" target="3">
          <mxGeometry relative="1" as="geometry"/>
        </mxCell>
        <mxCell id="7" style="endArrow=block;rounded=1;orthogonalLoop=1;jettySize=auto;html=1;" edge="1" parent="1" source="2" target="4">
          <mxGeometry relative="1" as="geometry"/>
        </mxCell>
        <mxCell id="8" style="endArrow=block;rounded=1;orthogonalLoop=1;jettySize=auto;html=1;" edge="1" parent="1" source="3" target="5">
          <mxGeometry relative="1" as="geometry"/>
        </mxCell>
        <mxCell id="9" style="endArrow=block;rounded=1;orthogonalLoop=1;jettySize=auto;html=1;" edge="1" parent="1" source="4" target="5">
          <mxGeometry relative="1" as="geometry"/>
        </mxCell>
        <mxCell id="10" value="Поддержка: отмена до передачи курьеру" style="rounded=1;whiteSpace=wrap;html=1;" vertex="1" parent="1">
          <mxGeometry x="60" y="260" width="320" height="60" as="geometry"/>
        </mxCell>
        <mxCell id="11" value="Поддержка: отмена только в первые 10 минут" style="rounded=1;whiteSpace=wrap;html=1;" vertex="1" parent="1">
          <mxGeometry x="400" y="260" width="320" height="60" as="geometry"/>
        </mxCell>
        <mxCell id="12" value="Решение: единый критерий (время ИЛИ статус), вынести в правила" style="rounded=1;whiteSpace=wrap;html=1;fillColor=#d5e8d4;strokeColor=#82b366;" vertex="1" parent="1">
          <mxGeometry x="740" y="260" width="400" height="80" as="geometry"/>
        </mxCell>
        <mxCell id="13" style="endArrow=block;rounded=1;orthogonalLoop=1;jettySize=auto;html=1;" edge="1" parent="1" source="10" target="12">
          <mxGeometry relative="1" as="geometry"/>
        </mxCell>
        <mxCell id="14" style="endArrow=block;rounded=1;orthogonalLoop=1;jettySize=auto;html=1;" edge="1" parent="1" source="11" target="12">
          <mxGeometry relative="1" as="geometry"/>
        </mxCell>
        <mxCell id="15" value="Лояльность: бесплатные получают бонусы" style="rounded=1;whiteSpace=wrap;html=1;" vertex="1" parent="1">
          <mxGeometry x="60" y="380" width="320" height="60" as="geometry"/>
        </mxCell>
        <mxCell id="16" value="Лояльность: только платные подписчики участвуют" style="rounded=1;whiteSpace=wrap;html=1;" vertex="1" parent="1">
          <mxGeometry x="400" y="380" width="360" height="60" as="geometry"/>
        </mxCell>
        <mxCell id="17" value="Решение: определить правила для free‑users или ограничить этапы" style="rounded=1;whiteSpace=wrap;html=1;fillColor=#d5e8d4;strokeColor=#82b366;" vertex="1" parent="1">
          <mxGeometry x="780" y="380" width="380" height="80" as="geometry"/>
        </mxCell>
        <mxCell id="18" style="endArrow=block;rounded=1;orthogonalLoop=1;jettySize=auto;html=1;" edge="1" parent="1" source="15" target="17">
          <mxGeometry relative="1" as="geometry"/>
        </mxCell>
        <mxCell id="19" style="endArrow=block;rounded=1;orthogonalLoop=1;jettySize=auto;html=1;" edge="1" parent="1" source="16" target="17">
          <mxGeometry relative="1" as="geometry"/>
        </mxCell>
      </root>
    </mxGraphModel>
  </diagram>
  <diagram name="6. Рекомендации и ошибки">
    <mxGraphModel dx="1280" dy="720" grid="1" gridSize="10" guides="1" tooltips="1" connect="1" arrows="1" fold="1" page="1" pageScale="1" pageWidth="1920" pageHeight="1080" background="#FFFFFF" math="0" shadow="0">
      <root>
        <mxCell id="0"/>
        <mxCell id="1" parent="0"/>
        <mxCell id="2" value="&lt;b&gt;Рекомендации&lt;/b&gt;" style="rounded=1;whiteSpace=wrap;html=1;fillColor=#dae8fc;strokeColor=#6c8ebf;" vertex="1" parent="1">
          <mxGeometry x="80" y="60" width="260" height="60" as="geometry"/>
        </mxCell>
        <mxCell id="3" value="Кросс‑функциональная команда: маркетинг, продажи, продукт, поддержка" style="rounded=1;whiteSpace=wrap;html=1;" vertex="1" parent="1">
          <mxGeometry x="60" y="140" width="540" height="60" as="geometry"/>
        </mxCell>
        <mxCell id="4" style="endArrow=block;rounded=1;orthogonalLoop=1;jettySize=auto;html=1;" edge="1" parent="1" source="2" target="3">
          <mxGeometry relative="1" as="geometry"/>
        </mxCell>
        <mxCell id="5" value="Опирайтесь на подтверждённые данные (quant + qual), а не гипотезы" style="rounded=1;whiteSpace=wrap;html=1;" vertex="1" parent="1">
          <mxGeometry x="60" y="210" width="540" height="60" as="geometry"/>
        </mxCell>
        <mxCell id="6" style="endArrow=block;rounded=1;orthogonalLoop=1;jettySize=auto;html=1;" edge="1" parent="1" source="2" target="5">
          <mxGeometry relative="1" as="geometry"/>
        </mxCell>
        <mxCell id="7" value="Баланс детализации и наглядности" style="rounded=1;whiteSpace=wrap;html=1;" vertex="1" parent="1">
          <mxGeometry x="60" y="280" width="540" height="60" as="geometry"/>
        </mxCell>
        <mxCell id="8" style="endArrow=block;rounded=1;orthogonalLoop=1;jettySize=auto;html=1;" edge="1" parent="1" source="2" target="7">
          <mxGeometry relative="1" as="geometry"/>
        </mxCell>
        <mxCell id="9" value="Делайте карту обучающим материалом для новичков" style="rounded=1;whiteSpace=wrap;html=1;" vertex="1" parent="1">
          <mxGeometry x="60" y="350" width="540" height="60" as="geometry"/>
        </mxCell>
        <mxCell id="10" style="endArrow=block;rounded=1;orthogonalLoop=1;jettySize=auto;html=1;" edge="1" parent="1" source="2" target="9">
          <mxGeometry relative="1" as="geometry"/>
        </mxCell>
        <mxCell id="11" value="&lt;b&gt;Частые ошибки&lt;/b&gt;" style="rounded=1;whiteSpace=wrap;html=1;fillColor=#f8cecc;strokeColor=#b85450;" vertex="1" parent="1">
          <mxGeometry x="720" y="60" width="260" height="60" as="geometry"/>
        </mxCell>
        <mxCell id="12" value="Игнорирование эмоций" style="rounded=1;whiteSpace=wrap;html=1;" vertex="1" parent="1">
          <mxGeometry x="700" y="140" width="400" height="60" as="geometry"/>
        </mxCell>
        <mxCell id="13" style="endArrow=block;rounded=1;orthogonalLoop=1;jettySize=auto;html=1;" edge="1" parent="1" source="11" target="12">
          <mxGeometry relative="1" as="geometry"/>
        </mxCell>
        <mxCell id="14" value="Нет конкретной аудитории/персоны" style="rounded=1;whiteSpace=wrap;html=1;" vertex="1" parent="1">
          <mxGeometry x="700" y="210" width="400" height="60" as="geometry"/>
        </mxCell>
        <mxCell id="15" style="endArrow=block;rounded=1;orthogonalLoop=1;jettySize=auto;html=1;" edge="1" parent="1" source="11" target="14">
          <mxGeometry relative="1" as="geometry"/>
        </mxCell>
        <mxCell id="16" value="Редкое обновление CJM" style="rounded=1;whiteSpace=wrap;html=1;" vertex="1" parent="1">
          <mxGeometry x="700" y="280" width="400" height="60" as="geometry"/>
        </mxCell>
        <mxCell id="17" style="endArrow=block;rounded=1;orthogonalLoop=1;jettySize=auto;html=1;" edge="1" parent="1" source="11" target="16">
          <mxGeometry relative="1" as="geometry"/>
        </mxCell>
        <mxCell id="18" value="Перегрузка карты данными" style="rounded=1;whiteSpace=wrap;html=1;" vertex="1" parent="1">
          <mxGeometry x="700" y="350" width="400" height="60" as="geometry"/>
        </mxCell>
        <mxCell id="19" style="endArrow=block;rounded=1;orthogonalLoop=1;jettySize=auto;html=1;" edge="1" parent="1" source="11" target="18">
          <mxGeometry relative="1" as="geometry"/>
        </mxCell>
      </root>
    </mxGraphModel>
  </diagram>
</mxfile>
